<svg width="64" height="64" viewBox="0 0 64 64" fill="none" xmlns="http://www.w3.org/2000/svg" aria-labelledby="favicon-title">
  <title id="favicon-title">mac-diskinfo</title>
  <rect x="4" y="4" width="56" height="56" rx="14" fill="#F8FAFD"/>
  <rect x="5.5" y="5.5" width="53" height="53" rx="12.5" stroke="#DADCE0" stroke-width="3"/>
  <circle cx="32" cy="34" r="14.5" fill="#4285F4"/>
  <path d="M32 14A20 20 0 0 1 49 24" stroke="#4285F4" stroke-width="5.5" stroke-linecap="round"/>
  <path d="M49 24A20 20 0 0 1 45 45" stroke="#34A853" stroke-width="5.5" stroke-linecap="round"/>
  <path d="M45 45A20 20 0 0 1 22 48" stroke="#FBBC04" stroke-width="5.5" stroke-linecap="round"/>
  <path d="M22 48A20 20 0 0 1 32 14" stroke="#EA4335" stroke-width="5.5" stroke-linecap="round"/>
  <circle cx="32" cy="34" r="5.9" fill="#F8FAFD"/>
  <circle cx="32" cy="34" r="8.4" stroke="#F8FAFD" stroke-width="3.6"/>
  <path d="M37 39L45 47" stroke="#F8FAFD" stroke-width="5.2" stroke-linecap="round"/>
</svg>
