<svg xmlns="http://www.w3.org/2000/svg">
  <symbol id="app-mark" viewBox="0 0 64 64">
    <rect x="4" y="4" width="56" height="56" rx="14" fill="#F8FAFD"/>
    <circle cx="32" cy="34" r="15" fill="#4285F4"/>
    <path d="M32 14A20 20 0 0 1 49 24" stroke="#4285F4" stroke-width="5.5" stroke-linecap="round"/>
    <path d="M49 24A20 20 0 0 1 45 45" stroke="#34A853" stroke-width="5.5" stroke-linecap="round"/>
    <path d="M45 45A20 20 0 0 1 22 48" stroke="#FBBC04" stroke-width="5.5" stroke-linecap="round"/>
    <path d="M22 48A20 20 0 0 1 32 14" stroke="#EA4335" stroke-width="5.5" stroke-linecap="round"/>
    <circle cx="32" cy="34" r="8" stroke="#fff" stroke-width="4"/>
    <path d="M37.5 39.5 45.5 47.5" stroke="#fff" stroke-width="5" stroke-linecap="round"/>
  </symbol>
  <symbol id="disk-ssd" viewBox="0 0 64 64">
    <rect x="8" y="8" width="48" height="48" rx="12" fill="#F8FAFD"/>
    <rect x="15" y="18" width="34" height="29" rx="7" fill="#fff" stroke="#DADCE0" stroke-width="2"/>
    <rect x="20" y="24" width="24" height="14" rx="3" fill="#202124"/>
    <rect x="23" y="27" width="5" height="4" rx="1" fill="#E8EAED"/>
    <rect x="36" y="27" width="5" height="4" rx="1" fill="#E8EAED"/>
    <rect x="27" y="14" width="10" height="4" rx="2" fill="#4285F4"/>
    <rect x="37" y="14" width="10" height="4" rx="2" fill="#34A853"/>
    <rect x="37" y="41" width="7" height="3" rx="1.5" fill="#FBBC04"/>
  </symbol>
  <symbol id="disk-nvme" viewBox="0 0 64 64">
    <rect x="8" y="8" width="48" height="48" rx="12" fill="#F8FAFD"/>
    <rect x="13" y="28" width="38" height="10" rx="3" fill="#202124"/>
    <rect x="20" y="25" width="8" height="16" rx="2" fill="#5F6368"/>
    <rect x="31" y="25" width="9" height="16" rx="2" fill="#4285F4"/>
    <rect x="51" y="29" width="4" height="2" rx="1" fill="#FBBC04"/>
    <rect x="51" y="33" width="4" height="2" rx="1" fill="#FBBC04"/>
    <circle cx="16" cy="33" r="2" fill="#DADCE0"/>
    <path d="M17 22H47" stroke="#34A853" stroke-width="3" stroke-linecap="round"/>
    <path d="M17 44H47" stroke="#EA4335" stroke-width="3" stroke-linecap="round"/>
  </symbol>
  <symbol id="disk-hdd" viewBox="0 0 64 64">
    <rect x="8" y="8" width="48" height="48" rx="12" fill="#F8FAFD"/>
    <rect x="17" y="14" width="30" height="38" rx="7" fill="#fff" stroke="#DADCE0" stroke-width="2"/>
    <circle cx="32" cy="30" r="11" fill="#E8EAED"/>
    <circle cx="32" cy="30" r="4" fill="#5F6368"/>
    <path d="M37 38C39.5 35 42 33.5 45 33l2 8c-3 .7-5.5 2.4-7.4 5L37 38Z" fill="#202124"/>
    <circle cx="39" cy="39" r="2.5" fill="#4285F4"/>
    <path d="M22 46H32" stroke="#34A853" stroke-width="3" stroke-linecap="round"/>
    <path d="M22 50H28" stroke="#FBBC04" stroke-width="3" stroke-linecap="round"/>
  </symbol>
</svg>
