<svg width="1024" height="1024" viewBox="0 0 1024 1024" fill="none" xmlns="http://www.w3.org/2000/svg" aria-labelledby="hdd-flat-title">
  <title id="hdd-flat-title">HDD disk icon</title>
  <rect x="128" y="128" width="768" height="768" rx="192" fill="#F8FAFD"/>
  <rect x="140" y="140" width="744" height="744" rx="180" stroke="#DADCE0" stroke-width="24"/>
  <rect x="260" y="240" width="504" height="548" rx="104" fill="#FFFFFF"/>
  <rect x="260" y="240" width="504" height="548" rx="104" stroke="#DADCE0" stroke-width="14"/>
  <rect x="296" y="240" width="126" height="38" rx="19" fill="#4285F4"/>
  <rect x="422" y="240" width="126" height="38" rx="19" fill="#34A853"/>
  <rect x="548" y="240" width="104" height="38" rx="19" fill="#FBBC04"/>
  <rect x="652" y="240" width="72" height="38" rx="19" fill="#EA4335"/>
  <circle cx="512" cy="482" r="168" fill="#E8EAED"/>
  <circle cx="512" cy="482" r="168" stroke="#F8FAFD" stroke-width="16"/>
  <path d="M512 314A168 168 0 0 1 658 398" stroke="#4285F4" stroke-width="28" stroke-linecap="round"/>
  <path d="M658 398A168 168 0 0 1 628 590" stroke="#34A853" stroke-width="28" stroke-linecap="round"/>
  <circle cx="512" cy="482" r="58" fill="#FFFFFF"/>
  <circle cx="512" cy="482" r="24" fill="#5F6368"/>
  <circle cx="512" cy="482" r="10" fill="#202124"/>
  <path d="M594 610C614 580 642 560 674 548L716 638C686 652 660 674 642 704L594 610Z" fill="#202124"/>
  <path d="M642 704C642 684 648 666 662 650L724 714C706 730 682 738 656 738H646C644 738 642 736 642 734V704Z" fill="#3C4043"/>
  <circle cx="602" cy="614" r="34" fill="#FFFFFF"/>
  <circle cx="602" cy="614" r="12" fill="#5F6368"/>
  <circle cx="704" cy="646" r="20" fill="#4285F4"/>
  <circle cx="704" cy="646" r="8" fill="#F8FAFD"/>
  <path d="M348 664H508" stroke="#34A853" stroke-width="22" stroke-linecap="round"/>
  <path d="M348 708H462" stroke="#FBBC04" stroke-width="22" stroke-linecap="round"/>
  <circle cx="316" cy="304" r="10" fill="#5F6368"/>
  <circle cx="708" cy="304" r="10" fill="#5F6368"/>
  <circle cx="316" cy="724" r="10" fill="#5F6368"/>
  <circle cx="708" cy="724" r="10" fill="#5F6368"/>
</svg>
