<svg width="1024" height="1024" viewBox="0 0 1024 1024" fill="none" xmlns="http://www.w3.org/2000/svg" aria-labelledby="nvme-flat-title">
  <title id="nvme-flat-title">NVMe disk icon</title>
  <rect x="128" y="128" width="768" height="768" rx="192" fill="#F8FAFD"/>
  <rect x="140" y="140" width="744" height="744" rx="180" stroke="#DADCE0" stroke-width="24"/>
  <path d="M246 384H778" stroke="#34A853" stroke-width="28" stroke-linecap="round"/>
  <path d="M246 640H778" stroke="#EA4335" stroke-width="28" stroke-linecap="round"/>
  <rect x="216" y="426" width="592" height="176" rx="44" fill="#202124"/>
  <rect x="216" y="426" width="592" height="176" rx="44" stroke="#5F6368" stroke-width="10"/>
  <circle cx="278" cy="514" r="22" fill="#DADCE0"/>
  <circle cx="278" cy="514" r="8" fill="#5F6368"/>
  <rect x="340" y="458" width="118" height="112" rx="24" fill="#5F6368"/>
  <rect x="476" y="458" width="86" height="112" rx="24" fill="#3C4043"/>
  <rect x="584" y="458" width="116" height="112" rx="26" fill="#4285F4"/>
  <rect x="604" y="478" width="76" height="72" rx="20" fill="#F8FAFD" fill-opacity="0.9"/>
  <path d="M364 516H428" stroke="#E8EAED" stroke-width="16" stroke-linecap="round"/>
  <path d="M492 516H546" stroke="#E8EAED" stroke-width="16" stroke-linecap="round"/>
  <path d="M614 516H670" stroke="#FFFFFF" stroke-width="16" stroke-linecap="round"/>
  <rect x="778" y="442" width="24" height="144" rx="8" fill="#3C4043"/>
  <rect x="798" y="456" width="20" height="24" rx="6" fill="#FBBC04"/>
  <rect x="798" y="492" width="20" height="24" rx="6" fill="#FBBC04"/>
  <rect x="798" y="528" width="20" height="24" rx="6" fill="#FBBC04"/>
  <rect x="798" y="564" width="20" height="24" rx="6" fill="#FBBC04"/>
  <path d="M216 514H178" stroke="#5F6368" stroke-width="20" stroke-linecap="round"/>
  <rect x="286" y="330" width="150" height="34" rx="17" fill="#4285F4"/>
  <rect x="436" y="330" width="150" height="34" rx="17" fill="#34A853"/>
  <rect x="586" y="330" width="104" height="34" rx="17" fill="#FBBC04"/>
</svg>
