<svg width="1024" height="1024" viewBox="0 0 1024 1024" fill="none" xmlns="http://www.w3.org/2000/svg">
  <defs>
    <linearGradient id="nvme-flat-tile" x1="184" y1="160" x2="840" y2="864" gradientUnits="userSpaceOnUse">
      <stop stop-color="#F8FBFF"/>
      <stop offset="1" stop-color="#D9E3F1"/>
    </linearGradient>
    <linearGradient id="nvme-flat-board" x1="260" y1="400" x2="762" y2="632" gradientUnits="userSpaceOnUse">
      <stop stop-color="#46566B"/>
      <stop offset="1" stop-color="#1B2634"/>
    </linearGradient>
    <linearGradient id="nvme-flat-chip" x1="582" y1="458" x2="692" y2="566" gradientUnits="userSpaceOnUse">
      <stop stop-color="#8FD8FF"/>
      <stop offset="1" stop-color="#2D7DFF"/>
    </linearGradient>
    <linearGradient id="nvme-flat-pins" x1="762" y1="506" x2="806" y2="506" gradientUnits="userSpaceOnUse">
      <stop stop-color="#EECF86"/>
      <stop offset="1" stop-color="#B88728"/>
    </linearGradient>
    <filter id="nvme-flat-shadow" x="104" y="120" width="816" height="816" filterUnits="userSpaceOnUse" color-interpolation-filters="sRGB">
      <feFlood flood-opacity="0" result="BackgroundImageFix"/>
      <feColorMatrix in="SourceAlpha" type="matrix" values="0 0 0 0 0 0 0 0 0 0 0 0 0 0 0 0 0 0 127 0" result="hardAlpha"/>
      <feOffset dy="26"/>
      <feGaussianBlur stdDeviation="24"/>
      <feColorMatrix type="matrix" values="0 0 0 0 0.0204 0 0 0 0 0.0941 0 0 0 0 0.2118 0 0 0 0.2 0"/>
      <feBlend mode="normal" in2="BackgroundImageFix" result="effect1_dropShadow_0_1"/>
      <feBlend mode="normal" in="SourceGraphic" in2="effect1_dropShadow_0_1" result="shape"/>
    </filter>
  </defs>
  <g filter="url(#nvme-flat-shadow)">
    <rect x="160" y="136" width="704" height="704" rx="188" fill="url(#nvme-flat-tile)"/>
    <rect x="160" y="136" width="704" height="704" rx="188" stroke="white" stroke-opacity="0.62" stroke-width="12"/>
    <circle cx="340" cy="272" r="140" fill="#7AC2FF" fill-opacity="0.12"/>
    <path d="M754 220C706 172 626 144 540 144H292V376C292 424 330 462 378 462H616C718 462 800 380 800 278V238C800 231 797 225 792 220H754Z" fill="white" fill-opacity="0.22"/>
  </g>
  <rect x="230" y="430" width="564" height="164" rx="44" fill="url(#nvme-flat-board)"/>
  <rect x="230" y="430" width="564" height="164" rx="44" stroke="#FFFFFF" stroke-opacity="0.18" stroke-width="8"/>
  <circle cx="284" cy="512" r="18" fill="#C9D3E0"/>
  <circle cx="284" cy="512" r="7" fill="#607084"/>
  <rect x="336" y="456" width="118" height="112" rx="22" fill="#232F3E"/>
  <rect x="476" y="456" width="86" height="112" rx="22" fill="#232F3E"/>
  <rect x="584" y="456" width="112" height="112" rx="24" fill="url(#nvme-flat-chip)"/>
  <rect x="598" y="470" width="84" height="84" rx="20" fill="#EEF7FF" fill-opacity="0.28"/>
  <path d="M364 516H428" stroke="#8AA0B5" stroke-width="14" stroke-linecap="round"/>
  <path d="M492 516H546" stroke="#8AA0B5" stroke-width="14" stroke-linecap="round"/>
  <path d="M610 516H670" stroke="white" stroke-opacity="0.7" stroke-width="14" stroke-linecap="round"/>
  <rect x="774" y="448" width="20" height="128" rx="6" fill="#2A3443"/>
  <rect x="792" y="458" width="14" height="20" rx="4" fill="url(#nvme-flat-pins)"/>
  <rect x="792" y="486" width="14" height="20" rx="4" fill="url(#nvme-flat-pins)"/>
  <rect x="792" y="514" width="14" height="20" rx="4" fill="url(#nvme-flat-pins)"/>
  <rect x="792" y="542" width="14" height="20" rx="4" fill="url(#nvme-flat-pins)"/>
  <path d="M230 512H196" stroke="#607084" stroke-width="18" stroke-linecap="round"/>
  <path d="M258 390H766" stroke="#AEC2D8" stroke-opacity="0.42" stroke-width="18" stroke-linecap="round"/>
  <path d="M258 634H766" stroke="#AEC2D8" stroke-opacity="0.26" stroke-width="18" stroke-linecap="round"/>
</svg>
