<svg width="1024" height="1024" viewBox="0 0 1024 1024" fill="none" xmlns="http://www.w3.org/2000/svg">
  <defs>
    <linearGradient id="ssd-flat-tile" x1="184" y1="160" x2="840" y2="864" gradientUnits="userSpaceOnUse">
      <stop stop-color="#F8FBFF"/>
      <stop offset="1" stop-color="#D9E3F1"/>
    </linearGradient>
    <linearGradient id="ssd-flat-shell" x1="278" y1="284" x2="746" y2="740" gradientUnits="userSpaceOnUse">
      <stop stop-color="#F7FAFF"/>
      <stop offset="1" stop-color="#C8D2E0"/>
    </linearGradient>
    <linearGradient id="ssd-flat-panel" x1="344" y1="356" x2="680" y2="628" gradientUnits="userSpaceOnUse">
      <stop stop-color="#344257"/>
      <stop offset="1" stop-color="#1D2734"/>
    </linearGradient>
    <linearGradient id="ssd-flat-chip" x1="466" y1="438" x2="558" y2="530" gradientUnits="userSpaceOnUse">
      <stop stop-color="#90D8FF"/>
      <stop offset="1" stop-color="#2C77FF"/>
    </linearGradient>
    <linearGradient id="ssd-flat-port" x1="646" y1="700" x2="720" y2="700" gradientUnits="userSpaceOnUse">
      <stop stop-color="#E9C070"/>
      <stop offset="1" stop-color="#B8892E"/>
    </linearGradient>
    <filter id="ssd-flat-shadow" x="104" y="120" width="816" height="816" filterUnits="userSpaceOnUse" color-interpolation-filters="sRGB">
      <feFlood flood-opacity="0" result="BackgroundImageFix"/>
      <feColorMatrix in="SourceAlpha" type="matrix" values="0 0 0 0 0 0 0 0 0 0 0 0 0 0 0 0 0 0 127 0" result="hardAlpha"/>
      <feOffset dy="26"/>
      <feGaussianBlur stdDeviation="24"/>
      <feColorMatrix type="matrix" values="0 0 0 0 0.0204 0 0 0 0 0.0941 0 0 0 0 0.2118 0 0 0 0.2 0"/>
      <feBlend mode="normal" in2="BackgroundImageFix" result="effect1_dropShadow_0_1"/>
      <feBlend mode="normal" in="SourceGraphic" in2="effect1_dropShadow_0_1" result="shape"/>
    </filter>
  </defs>
  <g filter="url(#ssd-flat-shadow)">
    <rect x="160" y="136" width="704" height="704" rx="188" fill="url(#ssd-flat-tile)"/>
    <rect x="160" y="136" width="704" height="704" rx="188" stroke="white" stroke-opacity="0.62" stroke-width="12"/>
    <circle cx="334" cy="268" r="142" fill="#7AC2FF" fill-opacity="0.11"/>
    <path d="M754 220C706 172 626 144 540 144H292V376C292 424 330 462 378 462H616C718 462 800 380 800 278V238C800 231 797 225 792 220H754Z" fill="white" fill-opacity="0.22"/>
  </g>
  <rect x="250" y="286" width="524" height="452" rx="112" fill="url(#ssd-flat-shell)"/>
  <rect x="250" y="286" width="524" height="452" rx="112" stroke="#FFFFFF" stroke-opacity="0.76" stroke-width="10"/>
  <rect x="330" y="356" width="364" height="240" rx="52" fill="url(#ssd-flat-panel)"/>
  <rect x="330" y="356" width="364" height="240" rx="52" stroke="#FFFFFF" stroke-opacity="0.12" stroke-width="8"/>
  <rect x="382" y="410" width="82" height="62" rx="18" fill="#93A3B7" fill-opacity="0.72"/>
  <rect x="560" y="410" width="82" height="62" rx="18" fill="#93A3B7" fill-opacity="0.72"/>
  <rect x="382" y="484" width="82" height="62" rx="18" fill="#93A3B7" fill-opacity="0.72"/>
  <rect x="560" y="484" width="82" height="62" rx="18" fill="#93A3B7" fill-opacity="0.72"/>
  <rect x="470" y="436" width="84" height="84" rx="24" fill="url(#ssd-flat-chip)"/>
  <rect x="482" y="448" width="60" height="60" rx="18" fill="#EFF7FF" fill-opacity="0.34"/>
  <path d="M302 668H722" stroke="#AEBACA" stroke-width="22" stroke-linecap="round"/>
  <rect x="658" y="654" width="74" height="34" rx="10" fill="#2A3443"/>
  <rect x="668" y="660" width="44" height="10" rx="4" fill="url(#ssd-flat-port)"/>
  <rect x="668" y="674" width="26" height="10" rx="4" fill="url(#ssd-flat-port)"/>
  <circle cx="304" cy="338" r="10" fill="#92A2B6"/>
  <circle cx="720" cy="338" r="10" fill="#92A2B6"/>
  <circle cx="304" cy="686" r="10" fill="#92A2B6"/>
  <circle cx="720" cy="686" r="10" fill="#92A2B6"/>
</svg>
