<svg width="1024" height="1024" viewBox="0 0 1024 1024" fill="none" xmlns="http://www.w3.org/2000/svg" aria-labelledby="ssd-flat-title">
  <title id="ssd-flat-title">SSD disk icon</title>
  <rect x="128" y="128" width="768" height="768" rx="192" fill="#F8FAFD"/>
  <rect x="140" y="140" width="744" height="744" rx="180" stroke="#DADCE0" stroke-width="24"/>
  <rect x="250" y="286" width="524" height="452" rx="104" fill="#FFFFFF"/>
  <rect x="250" y="286" width="524" height="452" rx="104" stroke="#DADCE0" stroke-width="14"/>
  <rect x="286" y="286" width="128" height="38" rx="19" fill="#4285F4"/>
  <rect x="414" y="286" width="128" height="38" rx="19" fill="#34A853"/>
  <rect x="542" y="286" width="104" height="38" rx="19" fill="#FBBC04"/>
  <rect x="646" y="286" width="92" height="38" rx="19" fill="#EA4335"/>
  <rect x="330" y="366" width="364" height="230" rx="48" fill="#202124"/>
  <rect x="382" y="416" width="82" height="58" rx="16" fill="#E8EAED"/>
  <rect x="560" y="416" width="82" height="58" rx="16" fill="#E8EAED"/>
  <rect x="382" y="490" width="82" height="58" rx="16" fill="#E8EAED"/>
  <rect x="560" y="490" width="82" height="58" rx="16" fill="#E8EAED"/>
  <rect x="470" y="438" width="84" height="84" rx="24" fill="#4285F4"/>
  <rect x="488" y="456" width="48" height="48" rx="14" fill="#F8FAFD" fill-opacity="0.9"/>
  <path d="M314 666H710" stroke="#E8EAED" stroke-width="26" stroke-linecap="round"/>
  <rect x="640" y="646" width="104" height="58" rx="18" fill="#202124"/>
  <rect x="662" y="662" width="54" height="12" rx="6" fill="#FBBC04"/>
  <rect x="662" y="682" width="36" height="12" rx="6" fill="#FBBC04"/>
  <circle cx="312" cy="348" r="10" fill="#5F6368"/>
  <circle cx="712" cy="348" r="10" fill="#5F6368"/>
  <circle cx="312" cy="682" r="10" fill="#5F6368"/>
  <circle cx="712" cy="682" r="10" fill="#5F6368"/>
</svg>
