<svg xmlns="http://www.w3.org/2000/svg" width="256" height="256" viewBox="0 0 256 256" fill="none" aria-labelledby="project-disk-title">
  <title id="project-disk-title">mac-diskinfo disk symbol</title>
  <rect x="24" y="24" width="208" height="208" rx="52" fill="#F8FAFD"/>
  <rect x="27" y="27" width="202" height="202" rx="49" stroke="#DADCE0" stroke-width="6"/>
  <rect x="62" y="70" width="132" height="116" rx="28" fill="#fff" stroke="#DADCE0" stroke-width="5"/>
  <rect x="78" y="92" width="100" height="58" rx="14" fill="#202124"/>
  <rect x="92" y="105" width="22" height="16" rx="5" fill="#E8EAED"/>
  <rect x="142" y="105" width="22" height="16" rx="5" fill="#E8EAED"/>
  <rect x="118" y="112" width="24" height="24" rx="8" fill="#4285F4"/>
  <path d="M78 170H178" stroke="#34A853" stroke-width="8" stroke-linecap="round"/>
  <path d="M78 190H135" stroke="#FBBC04" stroke-width="8" stroke-linecap="round"/>
  <rect x="62" y="70" width="36" height="10" rx="5" fill="#4285F4"/>
  <rect x="98" y="70" width="36" height="10" rx="5" fill="#34A853"/>
  <rect x="134" y="70" width="32" height="10" rx="5" fill="#FBBC04"/>
  <rect x="166" y="70" width="28" height="10" rx="5" fill="#EA4335"/>
</svg>
